<mxfile host="app.diagrams.net" modified="2020-08-11T09:36:45.725Z" agent="5.0 (Windows NT 10.0; Win64; x64) AppleWebKit/537.36 (KHTML, like Gecko) Chrome/80.0.3987.87 Safari/537.36" etag="xcJlDDcB78sUzblSpVlh" version="13.6.2" type="github">
  <diagram id="OmbEeYZQFlcmdVK6Gpd7" name="第 1 页">
    <mxGraphModel dx="782" dy="420" grid="1" gridSize="10" guides="1" tooltips="1" connect="1" arrows="1" fold="1" page="1" pageScale="1" pageWidth="827" pageHeight="1169" math="0" shadow="0">
      <root>
        <mxCell id="0" />
        <mxCell id="1" parent="0" />
        <mxCell id="aWEdUBnJBEJY9M-fdCu--4" value="" style="edgeStyle=orthogonalEdgeStyle;rounded=0;orthogonalLoop=1;jettySize=auto;html=1;" edge="1" parent="1" source="aWEdUBnJBEJY9M-fdCu--2" target="aWEdUBnJBEJY9M-fdCu--3">
          <mxGeometry relative="1" as="geometry" />
        </mxCell>
        <mxCell id="aWEdUBnJBEJY9M-fdCu--2" value="开始" style="strokeWidth=2;html=1;shape=mxgraph.flowchart.start_2;whiteSpace=wrap;sketch=0;fillColor=#d5e8d4;strokeColor=#82b366;" vertex="1" parent="1">
          <mxGeometry x="100" y="60" width="100" height="100" as="geometry" />
        </mxCell>
        <mxCell id="aWEdUBnJBEJY9M-fdCu--6" value="成功" style="edgeStyle=orthogonalEdgeStyle;rounded=0;orthogonalLoop=1;jettySize=auto;html=1;" edge="1" parent="1" source="aWEdUBnJBEJY9M-fdCu--3" target="aWEdUBnJBEJY9M-fdCu--5">
          <mxGeometry relative="1" as="geometry">
            <Array as="points">
              <mxPoint x="250" y="250" />
              <mxPoint x="250" y="250" />
            </Array>
          </mxGeometry>
        </mxCell>
        <mxCell id="aWEdUBnJBEJY9M-fdCu--8" value="失败" style="edgeStyle=orthogonalEdgeStyle;rounded=0;orthogonalLoop=1;jettySize=auto;html=1;" edge="1" parent="1" source="aWEdUBnJBEJY9M-fdCu--3" target="aWEdUBnJBEJY9M-fdCu--7">
          <mxGeometry relative="1" as="geometry" />
        </mxCell>
        <mxCell id="aWEdUBnJBEJY9M-fdCu--3" value="尝试栈上分配" style="whiteSpace=wrap;html=1;strokeWidth=2;fillColor=#ffe6cc;strokeColor=#d79b00;" vertex="1" parent="1">
          <mxGeometry x="90" y="220" width="120" height="60" as="geometry" />
        </mxCell>
        <mxCell id="aWEdUBnJBEJY9M-fdCu--5" value="栈上分配" style="whiteSpace=wrap;html=1;strokeWidth=2;fillColor=#dae8fc;strokeColor=#6c8ebf;" vertex="1" parent="1">
          <mxGeometry x="290" y="220" width="120" height="60" as="geometry" />
        </mxCell>
        <mxCell id="aWEdUBnJBEJY9M-fdCu--10" value="成功" style="edgeStyle=orthogonalEdgeStyle;rounded=0;orthogonalLoop=1;jettySize=auto;html=1;" edge="1" parent="1" source="aWEdUBnJBEJY9M-fdCu--7" target="aWEdUBnJBEJY9M-fdCu--9">
          <mxGeometry relative="1" as="geometry" />
        </mxCell>
        <mxCell id="aWEdUBnJBEJY9M-fdCu--14" value="失败" style="edgeStyle=orthogonalEdgeStyle;rounded=0;orthogonalLoop=1;jettySize=auto;html=1;" edge="1" parent="1" source="aWEdUBnJBEJY9M-fdCu--7" target="aWEdUBnJBEJY9M-fdCu--13">
          <mxGeometry relative="1" as="geometry" />
        </mxCell>
        <mxCell id="aWEdUBnJBEJY9M-fdCu--7" value="尝试TLAB分配" style="whiteSpace=wrap;html=1;strokeWidth=2;fillColor=#e1d5e7;strokeColor=#9673a6;" vertex="1" parent="1">
          <mxGeometry x="90" y="360" width="120" height="60" as="geometry" />
        </mxCell>
        <mxCell id="aWEdUBnJBEJY9M-fdCu--9" value="TLAB分配" style="whiteSpace=wrap;html=1;strokeWidth=2;fillColor=#dae8fc;strokeColor=#6c8ebf;" vertex="1" parent="1">
          <mxGeometry x="290" y="360" width="120" height="60" as="geometry" />
        </mxCell>
        <mxCell id="aWEdUBnJBEJY9M-fdCu--16" value="成功" style="edgeStyle=orthogonalEdgeStyle;rounded=0;orthogonalLoop=1;jettySize=auto;html=1;" edge="1" parent="1">
          <mxGeometry relative="1" as="geometry">
            <mxPoint x="188" y="530" as="sourcePoint" />
            <mxPoint x="248" y="530" as="targetPoint" />
          </mxGeometry>
        </mxCell>
        <mxCell id="aWEdUBnJBEJY9M-fdCu--18" value="失败" style="edgeStyle=orthogonalEdgeStyle;rounded=0;orthogonalLoop=1;jettySize=auto;html=1;" edge="1" parent="1" source="aWEdUBnJBEJY9M-fdCu--13" target="aWEdUBnJBEJY9M-fdCu--17">
          <mxGeometry relative="1" as="geometry" />
        </mxCell>
        <mxCell id="aWEdUBnJBEJY9M-fdCu--13" value="是否进入老年代" style="rhombus;whiteSpace=wrap;html=1;strokeWidth=2;fillColor=#ffe6cc;strokeColor=#d79b00;" vertex="1" parent="1">
          <mxGeometry x="110" y="490" width="80" height="80" as="geometry" />
        </mxCell>
        <mxCell id="aWEdUBnJBEJY9M-fdCu--15" value="老年代分配" style="whiteSpace=wrap;html=1;strokeWidth=2;fillColor=#dae8fc;strokeColor=#6c8ebf;" vertex="1" parent="1">
          <mxGeometry x="250" y="500" width="120" height="60" as="geometry" />
        </mxCell>
        <mxCell id="aWEdUBnJBEJY9M-fdCu--17" value="Eden分配" style="whiteSpace=wrap;html=1;strokeWidth=2;fillColor=#dae8fc;strokeColor=#6c8ebf;" vertex="1" parent="1">
          <mxGeometry x="90" y="660" width="120" height="60" as="geometry" />
        </mxCell>
      </root>
    </mxGraphModel>
  </diagram>
</mxfile>
